<?xml version="1.0" encoding="UTF-8"?>
<!DOCTYPE svg PUBLIC "-//W3C//DTD SVG 1.1//EN" "http://www.w3.org/Graphics/SVG/1.1/DTD/svg11.dtd">
<svg xmlns="http://www.w3.org/2000/svg" version="1.1" width="500px" height="500px" style="shape-rendering:geometricPrecision; text-rendering:geometricPrecision; image-rendering:optimizeQuality; fill-rule:evenodd; clip-rule:evenodd" xmlns:xlink="http://www.w3.org/1999/xlink">
	<g>
		<path style="opacity:1" fill="#5f34bb" d="M 280.5,154.5 C 281.035,156.446 282.368,157.446 284.5,157.5C 284.833,158.5 285.5,159.167 286.5,159.5C 290.207,161.688 293.54,164.355 296.5,167.5C 296.833,169.833 298.167,171.167 300.5,171.5C 304.922,175.587 308.589,180.254 311.5,185.5C 311.427,187.027 312.094,188.027 313.5,188.5C 331.531,216.189 336.365,246.189 328,278.5C 327.023,279.774 326.189,279.774 325.5,278.5C 325.027,277.094 324.027,276.427 322.5,276.5C 321.738,274.738 320.404,273.738 318.5,273.5C 316.566,272.89 314.899,271.89 313.5,270.5C 313.027,269.094 312.027,268.427 310.5,268.5C 308.181,268.008 306.181,267.008 304.5,265.5C 304.027,264.094 303.027,263.427 301.5,263.5C 300.178,263.67 299.011,263.337 298,262.5C 299.825,240.767 294.991,220.767 283.5,202.5C 283.715,200.821 283.048,199.821 281.5,199.5C 279.782,197.777 278.449,195.777 277.5,193.5C 277.167,192.5 276.5,191.833 275.5,191.5C 274.167,190.833 273.167,189.833 272.5,188.5C 272.167,187.5 271.5,186.833 270.5,186.5C 266.852,183.858 263.185,181.191 259.5,178.5C 259.027,177.094 258.027,176.427 256.5,176.5C 255.508,176.672 254.842,176.338 254.5,175.5C 254.027,174.094 253.027,173.427 251.5,173.5C 246.688,172.23 242.022,170.563 237.5,168.5C 235.162,166.96 232.495,166.294 229.5,166.5C 189.733,164.135 161.233,180.801 144,216.5C 133.494,244.431 135.994,271.098 151.5,296.5C 151.427,298.027 152.094,299.027 153.5,299.5C 154.5,299.833 155.167,300.5 155.5,301.5C 155.427,303.027 156.094,304.027 157.5,304.5C 176.7,325.795 200.7,335.129 229.5,332.5C 232.495,332.706 235.162,332.04 237.5,330.5C 240.763,330.129 243.429,331.463 245.5,334.5C 246.035,336.446 247.368,337.446 249.5,337.5C 251.777,338.449 253.777,339.782 255.5,341.5C 255.821,343.048 256.821,343.715 258.5,343.5C 260.001,344.752 261.668,345.752 263.5,346.5C 263.821,348.048 264.821,348.715 266.5,348.5C 268.645,348.917 269.312,349.917 268.5,351.5C 220.216,372.73 176.549,365.73 137.5,330.5C 132.432,325.105 127.766,319.439 123.5,313.5C 123.715,311.821 123.048,310.821 121.5,310.5C 103.112,281.346 98.6116,250.012 108,216.5C 114.886,195.358 126.72,177.691 143.5,163.5C 145.404,163.262 146.738,162.262 147.5,160.5C 175.684,137.764 207.684,130.264 243.5,138C 256.916,141.381 269.25,146.881 280.5,154.5 Z" />
	</g>
	<g>
		<path style="opacity:0.902" fill="#8e8e8e" d="M 280.5,154.5 C 282.23,155.026 283.564,156.026 284.5,157.5C 282.368,157.446 281.035,156.446 280.5,154.5 Z" />
	</g>
	<g>
		<path style="opacity:0.008" fill="#c0c0c0" d="M 284.5,157.5 C 285.833,157.5 286.5,158.167 286.5,159.5C 285.5,159.167 284.833,158.5 284.5,157.5 Z" />
	</g>
	<g>
		<path style="opacity:0.694" fill="#838383" d="M 147.5,160.5 C 146.738,162.262 145.404,163.262 143.5,163.5C 144.262,161.738 145.596,160.738 147.5,160.5 Z" />
	</g>
	<g>
		<path style="opacity:0.541" fill="#898989" d="M 229.5,166.5 C 232.495,166.294 235.162,166.96 237.5,168.5C 234.572,168.435 231.905,167.768 229.5,166.5 Z" />
	</g>
	<g>
		<path style="opacity:0.953" fill="#7e7e7e" d="M 296.5,167.5 C 298.167,168.5 299.5,169.833 300.5,171.5C 298.167,171.167 296.833,169.833 296.5,167.5 Z" />
	</g>
	<g>
		<path style="opacity:0.431" fill="#9b9b9b" d="M 251.5,173.5 C 253.027,173.427 254.027,174.094 254.5,175.5C 252.973,175.573 251.973,174.906 251.5,173.5 Z" />
	</g>
	<g>
		<path style="opacity:0.298" fill="#b2b2b2" d="M 256.5,176.5 C 258.027,176.427 259.027,177.094 259.5,178.5C 257.973,178.573 256.973,177.906 256.5,176.5 Z" />
	</g>
	<g>
		<path style="opacity:0.008" fill="#c4c4c4" d="M 270.5,186.5 C 271.5,186.833 272.167,187.5 272.5,188.5C 271.167,188.5 270.5,187.833 270.5,186.5 Z" />
	</g>
	<g>
		<path style="opacity:0.478" fill="#909090" d="M 311.5,185.5 C 312.906,185.973 313.573,186.973 313.5,188.5C 312.094,188.027 311.427,187.027 311.5,185.5 Z" />
	</g>
	<g>
		<path style="opacity:0.016" fill="#b5b5b5" d="M 275.5,191.5 C 276.5,191.833 277.167,192.5 277.5,193.5C 276.167,193.5 275.5,192.833 275.5,191.5 Z" />
	</g>
	<g>
		<path style="opacity:0.949" fill="#7a7a7a" d="M 281.5,199.5 C 283.048,199.821 283.715,200.821 283.5,202.5C 282.599,201.71 281.932,200.71 281.5,199.5 Z" />
	</g>
	<g>
		<path style="opacity:1" fill="#fff" d="M 263.5,257.5 C 264.848,258.186 266.015,259.186 267,260.5C 267.671,259.748 268.504,259.414 269.5,259.5C 296.72,267.017 320.387,280.684 340.5,300.5C 357.188,317.188 373.854,333.854 390.5,350.5C 390.318,352.591 390.652,354.591 391.5,356.5C 390.224,357.645 388.891,357.645 387.5,356.5C 386.575,357.357 385.908,358.357 385.5,359.5C 385.167,359.5 384.833,359.5 384.5,359.5C 381.311,359.858 378.311,360.525 375.5,361.5C 360.556,363.71 345.556,364.044 330.5,362.5C 326.455,360.823 322.122,360.156 317.5,360.5C 315.106,359.985 312.772,359.319 310.5,358.5C 308.485,357.076 306.152,356.41 303.5,356.5C 301.485,355.076 299.152,354.41 296.5,354.5C 278.044,348.274 261.377,338.941 246.5,326.5C 225.173,305.839 204.173,284.839 183.5,263.5C 183.5,262.167 183.5,260.833 183.5,259.5C 185.786,259.405 187.786,258.738 189.5,257.5C 203.991,254.242 218.491,252.576 233,252.5C 243.183,253.892 253.35,255.558 263.5,257.5 Z" />
	</g>
	<g>
		<path style="opacity:1" fill="#a7dda8" d="M 263.5,257.5 C 265.898,257.259 267.898,257.926 269.5,259.5C 268.504,259.414 267.671,259.748 267,260.5C 266.015,259.186 264.848,258.186 263.5,257.5 Z" />
	</g>
	<g>
		<path style="opacity:1" fill="#fff" d="M 189.5,257.5 C 187.786,258.738 185.786,259.405 183.5,259.5C 183.5,260.833 183.5,262.167 183.5,263.5C 182.188,262.855 181.188,261.855 180.5,260.5C 183.15,258.506 186.15,257.506 189.5,257.5 Z" />
	</g>
	<g>
		<path style="opacity:0.49" fill="#fff" d="M 301.5,263.5 C 303.027,263.427 304.027,264.094 304.5,265.5C 302.973,265.573 301.973,264.906 301.5,263.5 Z" />
	</g>
	<g>
		<path style="opacity:0.561" fill="#fff" d="M 310.5,268.5 C 312.027,268.427 313.027,269.094 313.5,270.5C 311.973,270.573 310.973,269.906 310.5,268.5 Z" />
	</g>
	<g>
		<path style="opacity:0.812" fill="#fff" d="M 318.5,273.5 C 320.404,273.738 321.738,274.738 322.5,276.5C 320.596,276.262 319.262,275.262 318.5,273.5 Z" />
	</g>
	<g>
		<path style="opacity:0.357" fill="#fff" d="M 322.5,276.5 C 324.027,276.427 325.027,277.094 325.5,278.5C 323.973,278.573 322.973,277.906 322.5,276.5 Z" />
	</g>
	<g>
		<path style="opacity:0.6" fill="#fff" d="M 151.5,296.5 C 152.906,296.973 153.573,297.973 153.5,299.5C 152.094,299.027 151.427,298.027 151.5,296.5 Z" />
	</g>
	<g>
		<path style="opacity:0.694" fill="#fff" d="M 155.5,301.5 C 156.906,301.973 157.573,302.973 157.5,304.5C 156.094,304.027 155.427,303.027 155.5,301.5 Z" />
	</g>
	<g>
		<path style="opacity:0.937" fill="#fff" d="M 121.5,310.5 C 123.048,310.821 123.715,311.821 123.5,313.5C 122.599,312.71 121.932,311.71 121.5,310.5 Z" />
	</g>
	<g>
		<path style="opacity:0.988" fill="#fff" d="M 237.5,330.5 C 235.162,332.04 232.495,332.706 229.5,332.5C 231.905,331.232 234.572,330.565 237.5,330.5 Z" />
	</g>
	<g>
		<path style="opacity:0.992" fill="#787878" d="M 245.5,334.5 C 247.23,335.026 248.564,336.026 249.5,337.5C 247.368,337.446 246.035,336.446 245.5,334.5 Z" />
	</g>
	<g>
		<path style="opacity:0.941" fill="#7a7a7a" d="M 255.5,341.5 C 256.71,341.932 257.71,342.599 258.5,343.5C 256.821,343.715 255.821,343.048 255.5,341.5 Z" />
	</g>
	<g>
		<path style="opacity:0.902" fill="#818181" d="M 263.5,346.5 C 264.71,346.932 265.71,347.599 266.5,348.5C 264.821,348.715 263.821,348.048 263.5,346.5 Z" />
	</g>
	<g>
		<path style="opacity:0.914" fill="#9cd9a0" d="M 296.5,354.5 C 299.152,354.41 301.485,355.076 303.5,356.5C 300.848,356.59 298.515,355.924 296.5,354.5 Z" />
	</g>
	<g>
		<path style="opacity:1" fill="#7acb7e" d="M 390.5,350.5 C 392.49,352.163 394.157,354.163 395.5,356.5C 392.435,358.25 389.102,359.25 385.5,359.5C 385.908,358.357 386.575,357.357 387.5,356.5C 388.891,357.645 390.224,357.645 391.5,356.5C 390.652,354.591 390.318,352.591 390.5,350.5 Z" />
	</g>
	<g>
		<path style="opacity:0.616" fill="#b2e1b5" d="M 303.5,356.5 C 306.152,356.41 308.485,357.076 310.5,358.5C 310.565,358.938 310.399,359.272 310,359.5C 307.585,358.868 305.418,357.868 303.5,356.5 Z" />
	</g>
	<g>
		<path style="opacity:0.937" fill="#9cd9a1" d="M 317.5,360.5 C 322.122,360.156 326.455,360.823 330.5,362.5C 325.972,362.23 321.639,361.563 317.5,360.5 Z" />
	</g>
	<g>
		<path style="opacity:0.004" fill="#def2df" d="M 384.5,359.5 C 381.923,360.972 379.089,361.972 376,362.5C 375.601,362.272 375.435,361.938 375.5,361.5C 378.311,360.525 381.311,359.858 384.5,359.5 Z" />
	</g>
</svg>
